<svg width="160" height="140" viewBox="0 0 160 140" fill="none" xmlns="http://www.w3.org/2000/svg">
<path d="M45.1727 39.9064C49.6541 35.4874 62.471 22.1853 83.6232 0L89.2698 5.95214C85.0573 11.3632 77.3941 19.5699 66.2802 30.5724C55.2559 41.4846 49.3404 47.3466 48.5337 48.1582C51.4915 54.5613 54.4492 60.1076 57.407 64.7972C60.4543 69.4867 63.0984 73.4999 65.3391 76.8367C67.5798 80.1735 68.9242 82.2027 69.3723 82.9241L62.1124 89.8232C55.4799 82.9692 48.3545 71.6061 40.7361 55.7337C37.6887 58.6196 34.0588 62.1367 29.8462 66.2852C25.6337 70.4337 22.4967 73.4999 20.4353 75.484C15.5057 80.2637 10.1728 84.5925 4.4366 88.4704L0 82.383C0.268885 82.1125 4.88474 78.1444 13.8476 70.4788C22.8104 62.7229 30.6081 55.1475 37.2406 47.7524C31.0562 31.0684 26.9333 17.0899 24.8719 5.81687L35.0895 3.92301C39.3917 22.2303 42.7527 34.2248 45.1727 39.9064Z" fill="#39693B"/>
<path d="M159.971 77.3821C160.058 78.3949 159.949 79.3857 159.643 80.3544C159.336 81.3232 159.183 82.314 159.183 83.3268C159.183 84.9561 159.271 86.6074 159.446 88.2807C159.621 89.91 159.708 91.5614 159.708 93.2347C159.708 93.587 159.621 94.2035 159.446 95.0842C159.271 95.9649 159.03 96.9777 158.724 98.1226C158.461 99.2675 158.155 100.5 157.805 101.822C157.498 103.143 157.17 104.398 156.82 105.587C156.513 106.776 156.207 107.832 155.901 108.757C155.638 109.638 155.441 110.276 155.31 110.673C154.697 112.082 154.019 113.469 153.275 114.834C152.575 116.155 152.071 117.52 151.765 118.929C150.496 120.074 149.227 121.219 147.958 122.364C146.732 123.509 145.551 124.698 144.413 125.931C144.063 126.327 143.756 126.767 143.494 127.252C143.275 127.736 143.056 128.243 142.837 128.771C142.662 129.255 142.465 129.762 142.246 130.29C142.028 130.775 141.765 131.215 141.459 131.611C140.759 132.492 139.905 133.153 138.899 133.593C137.892 134.033 136.995 134.54 136.207 135.112C135.944 135.288 135.704 135.508 135.485 135.773C135.31 136.037 135.091 136.235 134.829 136.367C134.216 136.719 133.581 136.984 132.925 137.16C132.268 137.38 131.59 137.578 130.89 137.754C130.233 137.974 129.577 138.195 128.92 138.415C128.264 138.679 127.629 139.031 127.017 139.472C126.535 139.251 126.032 139.053 125.507 138.877C124.982 138.701 124.5 138.437 124.063 138.084C123.45 138.437 122.75 138.723 121.962 138.943C121.218 139.207 120.408 139.406 119.533 139.538C118.702 139.714 117.87 139.824 117.039 139.868C116.207 139.956 115.463 140 114.807 140C114.456 140 114.063 139.978 113.625 139.934C113.187 139.89 112.728 139.824 112.246 139.736C111.765 139.692 111.284 139.604 110.802 139.472C110.365 139.384 109.993 139.251 109.686 139.075C109.599 139.031 109.489 138.943 109.358 138.811C109.27 138.723 109.161 138.613 109.03 138.481C108.898 138.393 108.767 138.349 108.636 138.349C108.505 138.349 108.417 138.459 108.373 138.679C107.017 138.062 105.638 137.49 104.238 136.962C102.881 136.433 101.524 135.817 100.168 135.112C99.2485 134.628 98.3951 134.055 97.6074 133.395C96.8634 132.734 96.0975 132.052 95.3098 131.347C94.5658 130.599 93.7999 129.894 93.0122 129.233C92.2682 128.529 91.4585 127.89 90.5833 127.318C90.452 126.437 90.2331 125.578 89.9268 124.742C89.6205 123.861 89.1391 123.091 88.4826 122.43C88.3951 121.902 88.22 121.461 87.9574 121.109C87.6948 120.757 87.4104 120.426 87.104 120.118C86.7977 119.81 86.5132 119.48 86.2506 119.127C86.0318 118.731 85.9224 118.203 85.9224 117.542V117.278L84.9377 116.749C84.7189 116.133 84.5876 115.494 84.5439 114.834C84.5001 114.173 84.3688 113.513 84.15 112.852C83.9312 112.368 83.6905 111.884 83.4279 111.399C83.1653 110.915 82.9684 110.386 82.8371 109.814C82.6182 108.977 82.5088 108.119 82.5088 107.238C82.5088 106.313 82.487 105.388 82.4432 104.464C82.4432 103.539 82.3557 102.658 82.1806 101.822C82.0055 100.941 81.6336 100.104 81.0646 99.3115C81.3272 98.607 81.4585 97.9244 81.4585 97.2639C81.4585 96.2511 81.3272 95.2603 81.0646 94.2915C80.802 93.3228 80.6708 92.332 80.6708 91.3192C80.6708 90.4385 80.7364 89.6018 80.8677 88.8092C80.999 87.9725 81.0646 87.1358 81.0646 86.2992C81.0646 85.2864 81.0427 84.2956 80.999 83.3268C80.9552 82.358 80.9333 81.3672 80.9333 80.3544C80.9333 79.0334 80.9552 78.0646 80.999 77.4481C81.0427 76.7876 81.1303 76.2371 81.2616 75.7968C81.3929 75.3124 81.546 74.806 81.7211 74.2776C81.9399 73.7492 82.1806 72.9345 82.4432 71.8336C82.5745 71.3052 82.6401 70.7548 82.6401 70.1823C82.6401 69.5658 82.7058 68.9493 82.8371 68.3328C83.3185 66.6595 83.8874 64.9421 84.5439 63.1807C85.2003 61.4193 85.7911 59.6579 86.3163 57.8965C86.4038 57.5883 86.6008 57.236 86.9071 56.8397C87.2134 56.3993 87.5417 55.959 87.8918 55.5186C88.2419 55.0342 88.592 54.5498 88.9421 54.0655C89.2922 53.5811 89.5767 53.0967 89.7955 52.6123C89.9268 52.26 89.9924 51.9077 89.9924 51.5555C89.9924 51.1591 90.0581 50.7848 90.1894 50.4326C90.3207 50.1683 90.5176 49.9702 90.7802 49.8381C91.0865 49.706 91.3491 49.5078 91.5679 49.2436C91.9181 48.539 92.2244 47.9226 92.487 47.3941C92.7496 46.8217 93.1653 46.2712 93.7343 45.7428C94.0406 45.3465 94.4126 44.9942 94.8502 44.686C95.3316 44.3337 95.7912 43.9814 96.2288 43.6291C96.7102 43.2768 97.126 42.9246 97.4761 42.5723C97.8699 42.176 98.1763 41.7356 98.3951 41.2512C98.5702 41.2512 98.964 41.1191 99.5767 40.8549C100.233 40.5907 100.999 40.2604 101.874 39.8641C102.75 39.4238 103.669 38.9614 104.631 38.477C105.594 37.9926 106.491 37.5303 107.323 37.0899C108.198 36.6055 108.942 36.2092 109.555 35.901C110.168 35.5487 110.54 35.3065 110.671 35.1744C110.89 35.2625 111.087 35.3065 111.262 35.3065C111.437 35.3065 111.634 35.3065 111.852 35.3065C112.553 35.3065 113.187 35.2625 113.756 35.1744C114.369 35.0863 114.982 35.0423 115.594 35.0423C116.557 35.0423 117.454 35.2184 118.286 35.5707C119.117 35.923 119.971 36.0991 120.846 36.0991C121.546 36.0991 122.203 36.0111 122.815 35.8349C123.428 35.6588 124.084 35.5707 124.785 35.5707C125.66 35.5707 126.47 35.8129 127.214 36.2973C128.001 36.7817 128.789 37.1339 129.577 37.3541C129.971 37.4862 130.408 37.5963 130.89 37.6844C131.371 37.7284 131.853 37.7725 132.334 37.8165C132.859 37.8605 133.341 37.9266 133.778 38.0147C134.216 38.0587 134.566 38.1468 134.829 38.2789C135.091 38.411 135.31 38.6311 135.485 38.9394C135.704 39.2036 135.944 39.4458 136.207 39.666C136.47 39.7981 136.754 39.8421 137.06 39.7981C137.367 39.754 137.651 39.8421 137.914 40.0623C138.395 40.3705 138.68 40.6347 138.767 40.8549C138.855 41.0311 138.964 41.2292 139.095 41.4494C139.271 41.6696 139.555 41.9558 139.949 42.3081C140.343 42.6163 141.109 43.0347 142.246 43.5631C142.597 43.6952 142.925 43.8713 143.231 44.0915C143.581 44.2676 143.975 44.3557 144.413 44.3557C145.332 45.4566 146.317 46.4914 147.367 47.4602C148.417 48.429 149.446 49.4197 150.452 50.4326L151.765 50.8949C152.028 51.2032 152.443 51.9077 153.012 53.0086C153.581 54.1095 154.15 55.2984 154.719 56.5755C155.332 57.8084 155.857 58.9974 156.295 60.1423C156.776 61.2432 157.017 61.9477 157.017 62.256C157.017 62.9165 156.973 63.555 156.885 64.1715C156.798 64.788 156.754 65.4485 156.754 66.1531C156.754 66.6375 156.776 67.0999 156.82 67.5402C156.864 67.9806 156.885 68.4649 156.885 68.9934C156.885 69.1255 156.951 69.3016 157.082 69.5218C157.257 69.6979 157.454 69.8961 157.673 70.1163C157.892 70.3364 158.111 70.5786 158.33 70.8428C158.549 71.063 158.702 71.2612 158.789 71.4373C158.92 71.9217 158.986 72.4281 158.986 72.9565C158.986 73.4849 159.052 74.0134 159.183 74.5418C159.271 74.9381 159.424 75.3785 159.643 75.8628C159.861 76.3032 159.971 76.7215 159.971 77.1178V77.3821ZM146.513 91.055C146.513 90.1743 146.338 89.3816 145.988 88.6771C145.682 87.9285 145.463 87.1358 145.332 86.2992C145.419 86.079 145.463 85.8808 145.463 85.7047C145.463 85.4845 145.463 85.2423 145.463 84.9781C145.463 84.1414 145.288 83.3708 144.938 82.6663C144.588 81.9617 144.413 81.1911 144.413 80.3544C144.413 79.5178 144.478 78.7251 144.61 77.9765C144.741 77.2279 144.807 76.4353 144.807 75.5986V71.8336C144.281 71.041 143.734 70.0282 143.166 68.7952C142.597 67.5182 141.984 66.1751 141.327 64.766C140.715 63.3569 140.036 61.9477 139.292 60.5386C138.548 59.0855 137.717 57.8305 136.798 56.7736C135.879 55.6727 134.872 54.8141 133.778 54.1976C132.728 53.5811 131.524 53.3609 130.168 53.537C129.03 52.4802 127.761 51.5555 126.36 50.7628C124.96 49.9262 123.494 49.5078 121.962 49.5078C120.824 49.5078 119.577 49.6399 118.22 49.9041C116.907 50.1243 115.594 50.4546 114.281 50.8949C113.012 51.3353 111.787 51.8637 110.605 52.4802C109.424 53.0526 108.417 53.6912 107.586 54.3957C107.279 54.6159 106.951 54.77 106.601 54.8581C106.294 54.9021 106.032 55.0562 105.813 55.3205C105.594 55.5406 105.507 55.8269 105.55 56.1791C105.594 56.5314 105.55 56.8397 105.419 57.1039C105.332 57.1039 105.135 57.258 104.828 57.5662C104.522 57.8305 104.172 58.1387 103.778 58.491C103.428 58.8433 103.1 59.1955 102.793 59.5478C102.531 59.8561 102.378 60.0322 102.334 60.0762C102.246 60.2964 102.246 60.4726 102.334 60.6047C102.421 60.7368 102.465 60.9129 102.465 61.1331C102.465 61.2212 102.378 61.4193 102.203 61.7276C102.028 62.0358 101.831 62.3881 101.612 62.7844C101.393 63.1807 101.174 63.577 100.955 63.9734C100.736 64.3697 100.605 64.6999 100.561 64.9641C100.474 65.5806 100.474 66.1971 100.561 66.8136C100.649 67.3861 100.693 67.9806 100.693 68.597C100.693 69.5658 100.518 70.5346 100.168 71.5034C99.8612 72.4721 99.5111 73.4629 99.1172 74.4757C98.7671 75.4445 98.417 76.4573 98.0669 77.5142C97.7605 78.527 97.6074 79.5618 97.6074 80.6186C97.6074 81.2351 97.673 81.8516 97.8043 82.4681C97.9356 83.0406 98.0012 83.635 98.0012 84.2515C98.0012 85.0882 97.8043 85.8588 97.4104 86.5634C97.0603 87.2679 96.8196 88.0386 96.6883 88.8752C97.0384 89.4036 97.2572 89.9761 97.3448 90.5926C97.4323 91.165 97.4761 91.7595 97.4761 92.376C97.4761 93.2567 97.4323 94.1154 97.3448 94.9521C97.2572 95.7887 97.2135 96.6474 97.2135 97.5281C97.2135 98.4529 97.2354 99.2675 97.2791 99.9721C97.3667 100.677 97.4979 101.359 97.673 102.02C97.8481 102.636 98.0669 103.253 98.3295 103.869C98.6358 104.486 98.9859 105.168 99.3798 105.917C99.5986 106.269 99.8174 106.621 100.036 106.974C100.255 107.326 100.43 107.7 100.561 108.097C100.912 109.065 101.13 110.078 101.218 111.135C101.349 112.192 101.59 113.205 101.94 114.173C102.028 114.482 102.181 114.746 102.399 114.966C102.618 115.186 102.815 115.406 102.99 115.627C103.209 115.847 103.384 116.089 103.515 116.353C103.647 116.617 103.691 116.926 103.647 117.278C104.259 117.498 104.719 117.718 105.025 117.938C105.375 118.159 105.944 118.203 106.732 118.071C106.995 118.907 107.52 119.7 108.308 120.448C109.139 121.197 110.08 121.858 111.13 122.43C112.181 122.958 113.231 123.399 114.281 123.751C115.375 124.059 116.316 124.213 117.104 124.213C117.586 124.213 117.936 124.103 118.154 123.883C118.417 123.619 118.658 123.333 118.877 123.024C119.139 122.716 119.402 122.474 119.664 122.298C119.971 122.078 120.408 121.99 120.977 122.034C121.24 121.769 121.524 121.637 121.831 121.637C122.225 121.637 122.553 121.703 122.815 121.836C123.122 121.968 123.45 122.034 123.8 122.034C124.15 122.034 124.522 121.924 124.916 121.703C125.354 121.483 125.791 121.219 126.229 120.911C126.667 120.603 127.104 120.316 127.542 120.052C127.979 119.744 128.395 119.546 128.789 119.458C129.183 119.326 129.599 119.303 130.036 119.392C130.518 119.436 130.955 119.458 131.349 119.458H131.874L132.662 118.533C133.362 118.313 134.128 118.115 134.96 117.938C135.791 117.762 136.47 117.366 136.995 116.749C137.608 115.384 138.155 113.931 138.636 112.39C139.117 110.805 139.73 109.374 140.474 108.097C141.174 106.864 141.765 106.027 142.246 105.587C142.772 105.146 143.187 104.75 143.494 104.398C143.8 104.001 144.019 103.451 144.15 102.746C144.325 101.998 144.413 100.677 144.413 98.7831C144.413 98.3868 144.478 98.0565 144.61 97.7923C144.785 97.5281 144.938 97.2639 145.069 96.9997C145.244 96.7355 145.376 96.4493 145.463 96.141C145.551 95.8328 145.507 95.4365 145.332 94.9521C145.813 94.4677 146.12 93.8952 146.251 93.2347C146.426 92.5301 146.513 91.8036 146.513 91.055Z" fill="#39693B"/>
</svg>
